<svg id="visual" viewBox="0 0 900 600" width="900" height="600" xmlns="http://www.w3.org/2000/svg" xmlns:xlink="http://www.w3.org/1999/xlink" version="1.1"><rect x="0" y="0" width="900" height="600" fill="#001220"></rect><defs><linearGradient id="grad1_0" x1="33.3%" y1="0%" x2="100%" y2="100%"><stop offset="20%" stop-color="#001220" stop-opacity="1"></stop><stop offset="80%" stop-color="#001220" stop-opacity="1"></stop></linearGradient></defs><defs><linearGradient id="grad2_0" x1="0%" y1="0%" x2="66.7%" y2="100%"><stop offset="20%" stop-color="#001220" stop-opacity="1"></stop><stop offset="80%" stop-color="#001220" stop-opacity="1"></stop></linearGradient></defs><g transform="translate(900, 0)"><path d="M0 486.7C-52 441.7 -104 396.6 -151.9 366.8C-199.8 337 -243.5 322.5 -297.7 297.7C-351.9 272.8 -416.4 237.6 -449.7 186.3C-482.9 134.9 -484.8 67.5 -486.7 0L0 0Z" fill="#FBAE3C"></path></g><g transform="translate(0, 600)"><path d="M0 -486.7C68.9 -486.1 137.8 -485.4 186.3 -449.7C234.7 -414 262.8 -343.1 289.9 -289.9C317.1 -236.7 343.4 -201.1 376 -155.8C408.7 -110.4 447.7 -55.2 486.7 0L0 0Z" fill="#FBAE3C"></path></g></svg>